<svg xmlns="http://www.w3.org/2000/svg" version="1.1" xmlns:xlink="http://www.w3.org/1999/xlink" viewBox="0 0 12.618106074979853 10.583215652903398"><g transform="matrix(0.8455303881644863,0,0,0.8455303881644863,1.791949580688498,8.13672126638997)"><g transform="matrix(1,0,0,1,0,0)" clip-path="url(#SvgjsClipPath84460)"><g clip-path="url(#SvgjsClipPath84458dceb8ca2-7025-4e08-97f8-8cfa0a5766dd)"><path d=" M 9.968925919045995 -0.8160239199360699 C 9.099833896431837 -4.158991680012917 5.987219479476664 -5.435344815751806 3.938817271725192 -6.087057031504048 C 5.080578400443453 -7.158554207342345 7.003719654116756 -6.946683094386217 7.8944642164504035 -5.659919651388632 C 8.06950577586497 -5.413489915848023 8.200522752963066 -5.1409107476036064 8.283805211032629 -4.849826864728723 C 8.400612006300282 -4.434426375302376 8.668761734955144 -4.110852440615797 9.024893174848183 -3.912899211446131 C 9.184308031142246 -7.0956426744917405 5.266997099108344 -8.66402404063222 3.199370673848913 -6.243031764665107 C 3.199370673848913 -6.243031764665107 1.4708099796070369 -6.801523388852441 0.7157366786102539 -6.767347002171627 L 0.7157366786102539 -6.767347002171627 C 4.1275968392068485 -6.138029313481288 8.082749125703785 -3.3628392616043925 9.968925919045995 -0.8160239199360699 L 9.968925919045995 -0.8160239199360699 Z" fill="#aac527" transform="matrix(1,0,0,1,0,0)" fill-rule="nonzero"></path></g><g clip-path="url(#SvgjsClipPath84458dceb8ca2-7025-4e08-97f8-8cfa0a5766dd)"><path d=" M 1.6700223388123105 -6.085707963608752 C 3.769531735330553 -4.948915901638163 6.311108196672146 -3.4047053352883907 7.537163584381442 -2.1287794043830113 C 6.089816092913873 -0.8700540891426476 3.7851359539861353 -1.4718507927689615 3.203777628973545 -3.2834241315013424 C 3.095380023586567 -3.6236140857649755 2.7897711763723367 -3.8599033276259482 2.4341568791724937 -3.9041302701267124 C 2.500193752647199 -2.632836138995181 3.3665201860760017 -1.468275762846429 4.559635832675172 -1.0306381376126303 C 5.892649820016463 -0.5272334524831868 7.331138432304927 -0.9350566772309588 8.269122855438832 -1.9869249151927084 C 6.768936871405529 -3.74909988449236 3.9518357769147916 -5.695962248657938 1.6700223388123105 -6.085707963608752" fill="#343432" transform="matrix(1,0,0,1,0,0)" fill-rule="nonzero"></path></g><g clip-path="url(#SvgjsClipPath84458dceb8ca2-7025-4e08-97f8-8cfa0a5766dd)"><path d=" M 0.8418970112852867 -6.159546946411249 L 0.7157366786102539 -6.209305067282724 L 0.8418970112852867 -6.259063188154199 C 0.9153987271139592 -6.288045663438126 0.9735885223310301 -6.3462354586551974 1.0025934820798792 -6.4197596589487915 L 1.0523516029513544 -6.545919991623824 L 1.1021097238228297 -6.4197596589487915 C 1.1310921991067573 -6.3462579431201185 1.1892819943238282 -6.288068147903048 1.2628061946174225 -6.259063188154199 L 1.3889665272924552 -6.209305067282724 L 1.2628061946174225 -6.159546946411249 C 1.18930447878875 -6.130564471127322 1.131114683571679 -6.07237467591025 1.1021097238228297 -5.998850475616656 L 1.0523516029513547 -5.872690142941623 L 1.0025934820798792 -5.998850475616656 C 0.9736110067959518 -6.072352191445329 0.9154212115788809 -6.1305419866624 0.8418970112852867 -6.159546946411249 Z" fill="#d4d6c9" transform="matrix(1,0,0,1,0,0)" fill-rule="nonzero"></path></g><g clip-path="url(#SvgjsClipPath84458dceb8ca2-7025-4e08-97f8-8cfa0a5766dd)"><path d=" M 8.43429373475282 -1.044623474793859 L 8.26910037097391 -1.1097609696717008 L 8.43429373475282 -1.1748984645495417 C 8.530527244617218 -1.212852241337183 8.606704611771562 -1.2890296084915258 8.644680873024122 -1.3852856028208453 L 8.709818367901965 -1.5504789665997558 L 8.774955862779807 -1.3852856028208453 C 8.812909639567447 -1.2890520929564477 8.88908700672179 -1.2128747258021058 8.98534300105111 -1.1748984645495435 L 9.150536364830018 -1.1097609696717017 L 8.98534300105111 -1.0446234747938608 C 8.88910949118671 -1.0066696980062186 8.812932124032367 -0.9304923308518767 8.774955862779807 -0.8342363365225571 L 8.709818367901965 -0.6690429727436484 L 8.644680873024122 -0.8342363365225571 C 8.606727096236483 -0.9304698463869556 8.53054972908214 -1.0066472135412985 8.43429373475282 -1.0446234747938608 Z" fill="#343432" transform="matrix(1,0,0,1,0,0)" fill-rule="nonzero"></path></g><g clip-path="url(#SvgjsClipPath84458dceb8ca2-7025-4e08-97f8-8cfa0a5766dd)"><path d=" M 7.522458744322724 -0.4549234132953597 L 7.432318524452075 -0.4904713523363915 L 7.522458744322724 -0.5260192913774233 C 7.574982454379554 -0.546727483570205 7.6165337455546505 -0.5883012592102226 7.637241937747433 -0.6408024848021325 L 7.672789876788465 -0.7309427046727803 L 7.708337815829496 -0.6408024848021325 C 7.729046008022279 -0.5882787747453015 7.770619783662296 -0.546727483570205 7.823121009254206 -0.5260192913774233 L 7.9132612291248545 -0.4904713523363915 L 7.823121009254206 -0.4549234132953597 C 7.770597299197375 -0.43421522110257715 7.729046008022279 -0.3926414454625595 7.708337815829496 -0.3401402198706496 L 7.672789876788465 -0.25000000000000355 L 7.637241937747433 -0.3401402198706496 C 7.6165337455546505 -0.39266392992748145 7.574959969914634 -0.43421522110257715 7.522458744322724 -0.4549234132953597 Z" fill="#343432" transform="matrix(1,0,0,1,0,0)" fill-rule="nonzero"></path></g><g clip-path="url(#SvgjsClipPath84458dceb8ca2-7025-4e08-97f8-8cfa0a5766dd)"><path d=" M 4.626212333307994 -5.398065572911813 C 4.767707071059551 -5.504349638596162 4.912731869803796 -5.6020221542155415 5.060859524707221 -5.692859392498759 C 4.666909214816069 -5.847057852931012 4.287416415869499 -5.976141166045852 3.9388172717251924 -6.087034547039126 C 4.746841487612316 -6.8453231265196965 5.946117877600001 -6.960690916032367 6.893950496369562 -6.507381618748222 C 7.106473658808416 -6.577195882329754 7.321852348292312 -6.638331142451554 7.541323210391938 -6.68132143938163 C 7.612306666149391 -6.695216838703172 7.6847516121267505 -6.707695716734653 7.757871092051755 -6.717543912370309 C 6.466116097841576 -7.711604591018656 4.478714243422375 -7.741014271136093 3.199370673848913 -6.243031764665107 C 3.199370673848913 -6.243031764665107 1.4707874951421152 -6.801523388852441 0.7157366786102539 -6.767324517706705 C 1.9617133022400775 -6.53751080174315 3.2800674184524943 -6.021289971608401 4.543739315975609 -5.334726835227698 C 4.571102909785182 -5.355974654578599 4.598488988059676 -5.3772224739295 4.626212333307994 -5.398043088446892 Z" fill="#e9e9e5" transform="matrix(1,0,0,1,0,0)" fill-rule="nonzero"></path></g><g clip-path="url(#SvgjsClipPath84458dceb8ca2-7025-4e08-97f8-8cfa0a5766dd)"><path d=" M 4.286337161553263 -5.124429634816082 C 3.4028775658542103 -5.595231845809222 2.500980708919455 -5.943786021023686 1.670044823277232 -6.085707963608752 C 2.3939096869628504 -5.693758771095622 3.170320745170221 -5.253378041141391 3.927260256755496 -4.792266634529456 C 4.042942828777068 -4.907162250278773 4.162627635554683 -5.0180331468071255 4.286359646018186 -5.124429634816082 Z" fill="#d4d6c9" transform="matrix(1,0,0,1,0,0)" fill-rule="nonzero"></path></g><g clip-path="url(#SvgjsClipPath84458dceb8ca2-7025-4e08-97f8-8cfa0a5766dd)"><path d=" M 2.4341568791724937 -3.90410778566179 C 2.450930290003999 -3.5814107451071537 2.5194629390850007 -3.2656838886782085 2.631592965648962 -2.9668878343352203 C 2.7340097033667976 -3.198972481255856 2.852053144205137 -3.423547316892681 2.986982418199589 -3.6367899822090264 C 2.8415304146218334 -3.7819721722077224 2.6469948241202506 -3.8776435704490813 2.4341343947075726 -3.904107785661791 Z" fill="#d4d6c9" transform="matrix(1,0,0,1,0,0)" fill-rule="nonzero"></path></g><g clip-path="url(#SvgjsClipPath84458dceb8ca2-7025-4e08-97f8-8cfa0a5766dd)"><path d=" M 1.8492235242373705 -7.140993840238584 L 1.6700223388123105 -7.211662513487137 L 1.8492235242373705 -7.282331186735689 C 1.953641379333227 -7.323500242007118 2.0362717879200645 -7.406153135058877 2.0774633276564147 -7.510570990154733 L 2.148132000904967 -7.689772175579793 L 2.2188006741535196 -7.510570990154733 C 2.2599697294249483 -7.406153135058877 2.3426226224767075 -7.323522726472039 2.447040477572564 -7.282331186735689 L 2.626241662997624 -7.211662513487137 L 2.447040477572564 -7.140993840238584 C 2.342622622476707 -7.099824784967156 2.25999221388987 -7.017171891915397 2.2188006741535196 -6.91275403681954 L 2.148132000904967 -6.73355285139448 L 2.0774633276564147 -6.91275403681954 C 2.0362942723849864 -7.017171891915397 1.9536413793332272 -7.099802300502234 1.8492235242373705 -7.140993840238584 Z" fill="#e9e9e5" transform="matrix(1,0,0,1,0,0)" fill-rule="nonzero"></path></g></g><g><path d=" M 1.0005 0.9329999999999999 Q 1.0005 0.942 0.996 0.942 L 0.8280000000000001 0.942 Q 0.804 0.942 0.7875 0.9434999999999999 Q 0.771 0.945 0.7605000000000001 0.945 Q 0.7365 0.945 0.7192500000000001 0.93375 Q 0.7020000000000001 0.9225 0.67725 0.8925 Q 0.6525 0.8624999999999999 0.5895 0.7769999999999999 Q 0.582 0.7665 0.57225 0.7537499999999999 Q 0.5625 0.7409999999999999 0.5505 0.7244999999999999 L 0.354 0.46049999999999996 L 0.321 0.49349999999999994 L 0.321 0.8205 Q 0.321 0.867 0.3285 0.8879999999999999 Q 0.336 0.9089999999999999 0.35775 0.9165 Q 0.3795 0.9239999999999999 0.4275 0.9239999999999999 Q 0.4335 0.9239999999999999 0.4335 0.9329999999999999 Q 0.4335 0.942 0.4275 0.942 Q 0.378 0.942 0.34950000000000003 0.9405 L 0.23700000000000002 0.939 L 0.126 0.9405 Q 0.096 0.942 0.045 0.942 Q 0.042 0.942 0.042 0.9329999999999999 Q 0.042 0.9239999999999999 0.045 0.9239999999999999 Q 0.093 0.9239999999999999 0.1155 0.9165 Q 0.138 0.9089999999999999 0.14625 0.88725 Q 0.1545 0.8654999999999999 0.1545 0.8205 L 0.1545 0.1259999999999999 Q 0.1545 0.08099999999999996 0.14625 0.05999999999999994 Q 0.138 0.038999999999999924 0.11625 0.030749999999999944 Q 0.0945 0.022499999999999964 0.048 0.022499999999999964 Q 0.043500000000000004 0.022499999999999964 0.043500000000000004 0.013499999999999956 Q 0.043500000000000004 0.0044999999999999485 0.048 0.0044999999999999485 L 0.1275 0.005999999999999894 Q 0.1965 0.008999999999999897 0.23700000000000002 0.008999999999999897 Q 0.28200000000000003 0.008999999999999897 0.35100000000000003 0.005999999999999894 L 0.4275 0.0044999999999999485 Q 0.432 0.0044999999999999485 0.432 0.013499999999999956 Q 0.432 0.022499999999999964 0.4275 0.022499999999999964 Q 0.381 0.022499999999999964 0.35925 0.03149999999999997 Q 0.3375 0.04049999999999998 0.32925 0.062249999999999917 Q 0.321 0.08399999999999996 0.321 0.1289999999999999 L 0.321 0.44699999999999995 L 0.603 0.15899999999999992 Q 0.6465 0.11549999999999994 0.6465 0.0794999999999999 Q 0.6465 0.05249999999999988 0.6225 0.03749999999999998 Q 0.5985 0.022499999999999964 0.555 0.022499999999999964 Q 0.5505 0.022499999999999964 0.5505 0.013499999999999956 Q 0.5505 0.0044999999999999485 0.555 0.0044999999999999485 L 0.6255000000000001 0.005999999999999894 Q 0.6915 0.008999999999999897 0.7485 0.008999999999999897 Q 0.81 0.008999999999999897 0.876 0.005999999999999894 L 0.9435 0.0044999999999999485 Q 0.9480000000000001 0.0044999999999999485 0.9480000000000001 0.013499999999999956 Q 0.9480000000000001 0.022499999999999964 0.9435 0.022499999999999964 Q 0.8745 0.022499999999999964 0.792 0.062249999999999917 Q 0.7095 0.10199999999999998 0.642 0.16799999999999993 L 0.47250000000000003 0.3404999999999999 L 0.6945 0.6405 Q 0.792 0.7799999999999999 0.84075 0.83775 Q 0.8895000000000001 0.8955 0.9195 0.90975 Q 0.9495 0.9239999999999999 0.996 0.9239999999999999 Q 1.0005 0.9239999999999999 1.0005 0.9329999999999999 M 1.1850439453125 0.5385 Q 1.1850439453125 0.705 1.2585439453125 0.8039999999999999 Q 1.3320439453125 0.9029999999999999 1.4655439453124999 0.9029999999999999 Q 1.5030439453125 0.9029999999999999 1.5420439453124999 0.8925 Q 1.5810439453125 0.8819999999999999 1.6110439453124998 0.861 L 1.6125439453125 0.861 Q 1.6170439453125 0.861 1.6207939453125 0.86625 Q 1.6245439453125 0.8714999999999999 1.6215439453124998 0.8759999999999999 Q 1.5165439453124998 0.96 1.3905439453125 0.96 Q 1.2735439453125 0.96 1.1917939453125 0.90975 Q 1.1100439453125 0.8594999999999999 1.0680439453125 0.7785 Q 1.0260439453124999 0.6975 1.0260439453124999 0.603 Q 1.0260439453124999 0.49949999999999994 1.0770439453125 0.4132499999999999 Q 1.1280439453125 0.32699999999999996 1.2150439453125 0.27674999999999994 Q 1.3020439453125 0.22649999999999992 1.4040439453125 0.22649999999999992 Q 1.5150439453125 0.22649999999999992 1.5735439453125 0.2849999999999999 Q 1.6320439453125 0.3434999999999999 1.6320439453125 0.43799999999999994 Q 1.6320439453125 0.45749999999999996 1.6282939453125 0.4649999999999999 Q 1.6245439453125 0.4724999999999999 1.6140439453125 0.4724999999999999 L 1.1880439453125 0.4739999999999999 Q 1.1850439453125 0.5129999999999999 1.1850439453125 0.5385 M 1.2487939453124999 0.3104999999999999 Q 1.2075439453124999 0.35849999999999993 1.1925439453125 0.44399999999999995 L 1.4715439453124999 0.4394999999999999 Q 1.4685439453125 0.26249999999999996 1.3530439453124998 0.26249999999999996 Q 1.2900439453124999 0.26249999999999996 1.2487939453124999 0.3104999999999999 M 2.4090563964843748 0.8534999999999999 Q 2.413556396484375 0.8534999999999999 2.415806396484375 0.861 Q 2.418056396484375 0.8684999999999999 2.412056396484375 0.8699999999999999 L 2.247056396484375 0.9494999999999999 Q 2.241056396484375 0.9524999999999999 2.2335563964843748 0.9524999999999999 Q 2.205056396484375 0.9524999999999999 2.177306396484375 0.9285 Q 2.1495563964843747 0.9045 2.134556396484375 0.852 L 2.0445563964843747 0.9045 Q 1.9995563964843748 0.9315 1.9643063964843748 0.942 Q 1.9290563964843748 0.9524999999999999 1.891556396484375 0.9524999999999999 Q 1.833056396484375 0.9524999999999999 1.7955563964843748 0.9209999999999999 Q 1.758056396484375 0.8895 1.758056396484375 0.84 Q 1.758056396484375 0.7935 1.7888063964843748 0.75825 Q 1.8195563964843748 0.723 1.875056396484375 0.7034999999999999 L 2.124056396484375 0.615 L 2.124056396484375 0.4364999999999999 Q 2.124056396484375 0.345 2.105306396484375 0.30299999999999994 Q 2.086556396484375 0.2609999999999999 2.0445563964843747 0.2609999999999999 Q 1.9965563964843749 0.2609999999999999 1.969556396484375 0.3044999999999999 Q 1.9425563964843748 0.348 1.927556396484375 0.4155 Q 1.911056396484375 0.49949999999999994 1.840556396484375 0.49949999999999994 Q 1.8030563964843749 0.49949999999999994 1.781306396484375 0.48074999999999996 Q 1.7595563964843748 0.46199999999999997 1.7595563964843748 0.4275 Q 1.7595563964843748 0.38249999999999995 1.815806396484375 0.33524999999999994 Q 1.8720563964843748 0.2879999999999999 1.9530563964843748 0.25725 Q 2.0340563964843748 0.22649999999999992 2.101556396484375 0.22649999999999992 Q 2.181056396484375 0.22649999999999992 2.227556396484375 0.26774999999999993 Q 2.274056396484375 0.30899999999999994 2.274056396484375 0.39149999999999996 L 2.274056396484375 0.711 Q 2.274056396484375 0.7785 2.286056396484375 0.8114999999999999 Q 2.298056396484375 0.8444999999999999 2.316806396484375 0.8534999999999999 Q 2.3355563964843746 0.8624999999999999 2.365556396484375 0.8624999999999999 Q 2.380556396484375 0.8624999999999999 2.4060563964843746 0.855 L 2.4090563964843748 0.8534999999999999 M 2.128556396484375 0.822 Q 2.124056396484375 0.7949999999999999 2.124056396484375 0.762 L 2.124056396484375 0.6465 L 1.9950563964843748 0.6944999999999999 Q 1.923056396484375 0.7214999999999999 1.923056396484375 0.7905 Q 1.923056396484375 0.831 1.9425563964843748 0.85425 Q 1.962056396484375 0.8775 1.9950563964843748 0.8775 Q 2.019056396484375 0.8775 2.061056396484375 0.8564999999999999 L 2.128556396484375 0.822 M 2.94758349609375 0.855 Q 2.9535834960937497 0.855 2.95583349609375 0.861 Q 2.95808349609375 0.867 2.9535834960937497 0.8699999999999999 Q 2.8920834960937496 0.9195 2.84333349609375 0.93975 Q 2.79458349609375 0.96 2.73458349609375 0.96 Q 2.64458349609375 0.96 2.58308349609375 0.9119999999999999 Q 2.5215834960937498 0.864 2.5215834960937498 0.7529999999999999 L 2.5215834960937498 0.36 Q 2.5215834960937498 0.3194999999999999 2.50433349609375 0.30599999999999994 Q 2.48708349609375 0.2925 2.44058349609375 0.2925 Q 2.4360834960937496 0.2925 2.4360834960937496 0.2789999999999999 Q 2.4360834960937496 0.26549999999999996 2.44058349609375 0.26549999999999996 Q 2.51708349609375 0.26549999999999996 2.57408349609375 0.23249999999999993 Q 2.63108349609375 0.1994999999999999 2.6475834960937497 0.14549999999999996 Q 2.6505834960937498 0.1409999999999999 2.65658349609375 0.1409999999999999 Q 2.66258349609375 0.1409999999999999 2.66708349609375 0.14324999999999988 Q 2.6715834960937497 0.14549999999999996 2.6715834960937497 0.14849999999999997 L 2.6715834960937497 0.2579999999999999 Q 2.7750834960937496 0.25649999999999995 2.91308349609375 0.24449999999999994 Q 2.9175834960937497 0.24449999999999994 2.92058349609375 0.2549999999999999 Q 2.92358349609375 0.26549999999999996 2.92358349609375 0.28049999999999997 Q 2.92358349609375 0.2955 2.9183334960937497 0.30974999999999997 Q 2.91308349609375 0.32399999999999995 2.9085834960937498 0.3224999999999999 Q 2.8380834960937498 0.3044999999999999 2.6715834960937497 0.2985 L 2.6715834960937497 0.7184999999999999 Q 2.6715834960937497 0.8969999999999999 2.80358349609375 0.8969999999999999 Q 2.8845834960937498 0.8969999999999999 2.94458349609375 0.8564999999999999 L 2.94758349609375 0.855 M 3.1965908203124997 0.90975 Q 3.1125908203124997 0.8594999999999999 3.0660908203124997 0.7747499999999999 Q 3.0195908203124997 0.69 3.0195908203124997 0.591 Q 3.0195908203124997 0.4769999999999999 3.0788408203124997 0.3929999999999999 Q 3.1380908203124998 0.30899999999999994 3.2303408203124997 0.26549999999999996 Q 3.3225908203124996 0.22199999999999998 3.4200908203125 0.22199999999999998 Q 3.5265908203125 0.22199999999999998 3.6083408203125 0.27374999999999994 Q 3.6900908203125 0.3254999999999999 3.7350908203124997 0.40874999999999995 Q 3.7800908203124997 0.49199999999999994 3.7800908203124997 0.5834999999999999 Q 3.7800908203124997 0.6839999999999999 3.7275908203125 0.7702499999999999 Q 3.6750908203124997 0.8564999999999999 3.5850908203125 0.90825 Q 3.4950908203125 0.96 3.3870908203125 0.96 Q 3.2805908203125 0.96 3.1965908203124997 0.90975 M 3.5573408203124997 0.843 Q 3.6090908203125 0.7605 3.6090908203125 0.615 Q 3.6090908203125 0.516 3.5790908203124996 0.43499999999999994 Q 3.5490908203125 0.354 3.4943408203125 0.30674999999999997 Q 3.4395908203124996 0.25949999999999995 3.3675908203124996 0.25949999999999995 Q 3.2805908203125 0.25949999999999995 3.2355908203125 0.3314999999999999 Q 3.1905908203125 0.40349999999999997 3.1905908203125 0.5445 Q 3.1905908203125 0.651 3.2213408203125 0.7387499999999999 Q 3.2520908203124996 0.8264999999999999 3.3045908203125 0.8759999999999999 Q 3.3570908203124996 0.9255 3.4215908203125 0.9255 Q 3.5055908203125 0.9255 3.5573408203124997 0.843 M 4.67261572265625 0.9329999999999999 Q 4.67261572265625 0.942 4.66961572265625 0.942 Q 4.63211572265625 0.942 4.611115722656249 0.9405 L 4.53311572265625 0.939 L 4.44311572265625 0.9405 Q 4.420615722656249 0.942 4.38311572265625 0.942 Q 4.3801157226562495 0.942 4.3801157226562495 0.9329999999999999 Q 4.3801157226562495 0.9239999999999999 4.38311572265625 0.9239999999999999 Q 4.41761572265625 0.9239999999999999 4.43411572265625 0.9149999999999999 Q 4.4506157226562495 0.9059999999999999 4.45661572265625 0.88425 Q 4.46261572265625 0.8624999999999999 4.46261572265625 0.8174999999999999 L 4.46261572265625 0.5189999999999999 Q 4.46261572265625 0.3779999999999999 4.421365722656249 0.32475 Q 4.3801157226562495 0.27149999999999996 4.308115722656249 0.27149999999999996 Q 4.24811572265625 0.27149999999999996 4.19636572265625 0.3015 Q 4.1446157226562494 0.3314999999999999 4.0996157226562495 0.3989999999999999 L 4.0996157226562495 0.8174999999999999 Q 4.0996157226562495 0.8624999999999999 4.10486572265625 0.88425 Q 4.11011572265625 0.9059999999999999 4.12586572265625 0.9149999999999999 Q 4.141615722656249 0.9239999999999999 4.17461572265625 0.9239999999999999 Q 4.17761572265625 0.9239999999999999 4.17761572265625 0.9329999999999999 Q 4.17761572265625 0.942 4.17461572265625 0.942 Q 4.13111572265625 0.942 4.10561572265625 0.9405 L 4.01861572265625 0.939 L 3.9361157226562495 0.9405 Q 3.9121157226562495 0.942 3.8686157226562496 0.942 Q 3.8656157226562495 0.942 3.8656157226562495 0.9329999999999999 Q 3.8656157226562495 0.9239999999999999 3.8686157226562496 0.9239999999999999 Q 3.9031157226562496 0.9239999999999999 3.92036572265625 0.9165 Q 3.9376157226562496 0.9089999999999999 3.94361572265625 0.88725 Q 3.9496157226562496 0.8654999999999999 3.9496157226562496 0.8205 L 3.9496157226562496 0.36149999999999993 Q 3.9496157226562496 0.3164999999999999 3.94361572265625 0.2955 Q 3.9376157226562496 0.27449999999999997 3.92186572265625 0.26625 Q 3.9061157226562497 0.2579999999999999 3.87311572265625 0.2579999999999999 Q 3.8686157226562496 0.2579999999999999 3.8686157226562496 0.2489999999999999 Q 3.8686157226562496 0.23999999999999988 3.87311572265625 0.23999999999999988 L 3.9706157226562495 0.24149999999999994 L 4.071115722656249 0.23999999999999988 Q 4.08911572265625 0.23999999999999988 4.094365722656249 0.24524999999999997 Q 4.0996157226562495 0.25049999999999994 4.0996157226562495 0.26849999999999996 L 4.0996157226562495 0.351 Q 4.15661572265625 0.2849999999999999 4.22261572265625 0.25349999999999995 Q 4.28861572265625 0.22199999999999998 4.36811572265625 0.22199999999999998 Q 4.4731157226562495 0.22199999999999998 4.542115722656249 0.2812499999999999 Q 4.611115722656249 0.3404999999999999 4.611115722656249 0.48449999999999993 L 4.611115722656249 0.8205 Q 4.611115722656249 0.8654999999999999 4.6156157226562495 0.88725 Q 4.62011572265625 0.9089999999999999 4.63211572265625 0.9165 Q 4.64411572265625 0.9239999999999999 4.66961572265625 0.9239999999999999 Q 4.67261572265625 0.9239999999999999 4.67261572265625 0.9329999999999999 M 5.380655273437499 0.8145 Q 5.380655273437499 0.8534999999999999 5.3866552734374995 0.8707499999999999 Q 5.3926552734375 0.8879999999999999 5.4099052734374995 0.8939999999999999 Q 5.427155273437499 0.8999999999999999 5.4661552734375 0.8999999999999999 L 5.5171552734375 0.8999999999999999 Q 5.6341552734375 0.8999999999999999 5.7196552734375 0.83775 Q 5.805155273437499 0.7755 5.8336552734375 0.6689999999999999 Q 5.8336552734375 0.6659999999999999 5.8396552734375 0.6659999999999999 Q 5.8426552734375 0.6659999999999999 5.846405273437499 0.66825 Q 5.850155273437499 0.6704999999999999 5.850155273437499 0.6719999999999999 Q 5.8366552734375 0.8205 5.8366552734375 0.9195 Q 5.8366552734375 0.9315 5.8314052734374995 0.93675 Q 5.826155273437499 0.942 5.8141552734375 0.942 L 5.1061552734374995 0.942 Q 5.103155273437499 0.942 5.103155273437499 0.9329999999999999 Q 5.103155273437499 0.9239999999999999 5.1061552734374995 0.9239999999999999 Q 5.1541552734375 0.9239999999999999 5.1759052734374995 0.9165 Q 5.1976552734374994 0.9089999999999999 5.2059052734375 0.88725 Q 5.214155273437499 0.8654999999999999 5.214155273437499 0.8205 L 5.214155273437499 0.1259999999999999 Q 5.214155273437499 0.08099999999999996 5.2059052734375 0.05999999999999994 Q 5.1976552734374994 0.038999999999999924 5.1751552734374995 0.030749999999999944 Q 5.1526552734374995 0.022499999999999964 5.1061552734374995 0.022499999999999964 Q 5.103155273437499 0.022499999999999964 5.103155273437499 0.013499999999999956 Q 5.103155273437499 0.0044999999999999485 5.1061552734374995 0.0044999999999999485 L 5.1826552734375 0.005999999999999894 Q 5.2516552734375 0.008999999999999897 5.2966552734375 0.008999999999999897 Q 5.3416552734375 0.008999999999999897 5.4106552734374995 0.005999999999999894 L 5.4871552734375 0.0044999999999999485 Q 5.4916552734375 0.0044999999999999485 5.4916552734375 0.013499999999999956 Q 5.4916552734375 0.022499999999999964 5.4871552734375 0.022499999999999964 Q 5.4406552734375 0.022499999999999964 5.4181552734375 0.030749999999999944 Q 5.3956552734375 0.038999999999999924 5.3881552734375 0.06074999999999997 Q 5.380655273437499 0.0824999999999999 5.380655273437499 0.12749999999999995 L 5.380655273437499 0.8145 M 6.600129638671874 0.8534999999999999 Q 6.604629638671875 0.8534999999999999 6.606879638671875 0.861 Q 6.609129638671875 0.8684999999999999 6.6031296386718745 0.8699999999999999 L 6.4381296386718745 0.9494999999999999 Q 6.432129638671874 0.9524999999999999 6.424629638671875 0.9524999999999999 Q 6.396129638671875 0.9524999999999999 6.3683796386718745 0.9285 Q 6.340629638671874 0.9045 6.325629638671875 0.852 L 6.235629638671875 0.9045 Q 6.190629638671875 0.9315 6.155379638671874 0.942 Q 6.120129638671875 0.9524999999999999 6.082629638671874 0.9524999999999999 Q 6.024129638671875 0.9524999999999999 5.986629638671874 0.9209999999999999 Q 5.949129638671875 0.8895 5.949129638671875 0.84 Q 5.949129638671875 0.7935 5.979879638671875 0.75825 Q 6.010629638671874 0.723 6.066129638671875 0.7034999999999999 L 6.315129638671874 0.615 L 6.315129638671874 0.4364999999999999 Q 6.315129638671874 0.345 6.2963796386718744 0.30299999999999994 Q 6.277629638671875 0.2609999999999999 6.235629638671875 0.2609999999999999 Q 6.187629638671875 0.2609999999999999 6.160629638671875 0.3044999999999999 Q 6.1336296386718745 0.348 6.118629638671875 0.4155 Q 6.102129638671874 0.49949999999999994 6.031629638671874 0.49949999999999994 Q 5.9941296386718745 0.49949999999999994 5.972379638671875 0.48074999999999996 Q 5.950629638671875 0.46199999999999997 5.950629638671875 0.4275 Q 5.950629638671875 0.38249999999999995 6.006879638671874 0.33524999999999994 Q 6.0631296386718745 0.2879999999999999 6.144129638671875 0.25725 Q 6.225129638671874 0.22649999999999992 6.292629638671874 0.22649999999999992 Q 6.372129638671875 0.22649999999999992 6.418629638671875 0.26774999999999993 Q 6.465129638671875 0.30899999999999994 6.465129638671875 0.39149999999999996 L 6.465129638671875 0.711 Q 6.465129638671875 0.7785 6.477129638671874 0.8114999999999999 Q 6.489129638671875 0.8444999999999999 6.5078796386718745 0.8534999999999999 Q 6.526629638671874 0.8624999999999999 6.5566296386718745 0.8624999999999999 Q 6.571629638671874 0.8624999999999999 6.597129638671874 0.855 L 6.600129638671874 0.8534999999999999 M 6.319629638671874 0.822 Q 6.315129638671874 0.7949999999999999 6.315129638671874 0.762 L 6.315129638671874 0.6465 L 6.186129638671875 0.6944999999999999 Q 6.114129638671875 0.7214999999999999 6.114129638671875 0.7905 Q 6.114129638671875 0.831 6.1336296386718745 0.85425 Q 6.153129638671874 0.8775 6.186129638671875 0.8775 Q 6.210129638671875 0.8775 6.2521296386718745 0.8564999999999999 L 6.319629638671874 0.822 M 7.337406738281249 0.49949999999999994 Q 7.411656738281249 0.5685 7.411656738281249 0.6704999999999999 Q 7.411656738281249 0.7484999999999999 7.366656738281249 0.8114999999999999 Q 7.321656738281249 0.8744999999999999 7.242156738281249 0.9112499999999999 Q 7.16265673828125 0.948 7.0651567382812495 0.948 Q 7.02315673828125 0.948 6.969156738281249 0.9434999999999999 Q 6.9481567382812495 0.942 6.917406738281249 0.9405 Q 6.88665673828125 0.939 6.849156738281249 0.939 L 6.73965673828125 0.9405 Q 6.709656738281249 0.942 6.658656738281249 0.942 Q 6.65415673828125 0.942 6.65415673828125 0.9329999999999999 Q 6.65415673828125 0.9239999999999999 6.658656738281249 0.9239999999999999 Q 6.70215673828125 0.9239999999999999 6.72465673828125 0.91575 Q 6.74715673828125 0.9075 6.756906738281249 0.8857499999999999 Q 6.76665673828125 0.864 6.76665673828125 0.8205 L 6.76665673828125 0.1259999999999999 Q 6.76665673828125 0.06299999999999994 6.74565673828125 0.042749999999999955 Q 6.72465673828125 0.022499999999999964 6.660156738281249 0.022499999999999964 Q 6.657156738281249 0.022499999999999964 6.657156738281249 0.013499999999999956 Q 6.657156738281249 0.0044999999999999485 6.660156738281249 0.0044999999999999485 L 6.73965673828125 0.005999999999999894 Q 6.8086567382812495 0.008999999999999897 6.849156738281249 0.008999999999999897 Q 6.891156738281249 0.008999999999999897 6.93615673828125 0.0044999999999999485 Q 6.95115673828125 0.0029999999999998916 6.98115673828125 0.0014999999999999458 Q 7.011156738281249 -1.1102230246251565e-16 7.033656738281249 -1.1102230246251565e-16 Q 7.17015673828125 -1.1102230246251565e-16 7.245156738281249 0.04949999999999988 Q 7.320156738281249 0.09899999999999998 7.320156738281249 0.1934999999999999 Q 7.320156738281249 0.26549999999999996 7.272906738281249 0.32399999999999995 Q 7.225656738281249 0.38249999999999995 7.1371567382812495 0.4155 Q 7.26315673828125 0.4304999999999999 7.337406738281249 0.49949999999999994 M 6.95115673828125 0.05324999999999991 Q 6.93465673828125 0.0734999999999999 6.93465673828125 0.1289999999999999 L 6.93465673828125 0.4139999999999999 L 6.9946567382812495 0.4155 Q 7.07265673828125 0.4155 7.11465673828125 0.357 Q 7.156656738281249 0.2985 7.156656738281249 0.20699999999999996 Q 7.156656738281249 0.12149999999999994 7.11915673828125 0.07724999999999993 Q 7.081656738281249 0.03299999999999992 7.011156738281249 0.03299999999999992 Q 6.967656738281249 0.03299999999999992 6.95115673828125 0.05324999999999991 M 7.23615673828125 0.7064999999999999 Q 7.23615673828125 0.591 7.180656738281249 0.5235 Q 7.12515673828125 0.45599999999999996 7.012656738281249 0.45599999999999996 Q 6.969156738281249 0.45599999999999996 6.93465673828125 0.45899999999999996 L 6.93465673828125 0.8205 Q 6.93465673828125 0.8699999999999999 6.95415673828125 0.89025 Q 6.9736567382812495 0.9105 7.039656738281249 0.9105 Q 7.23615673828125 0.9105 7.23615673828125 0.7064999999999999 M 7.71011279296875 0.90975 Q 7.626112792968749 0.8594999999999999 7.579612792968749 0.7747499999999999 Q 7.533112792968749 0.69 7.533112792968749 0.591 Q 7.533112792968749 0.4769999999999999 7.59236279296875 0.3929999999999999 Q 7.651612792968749 0.30899999999999994 7.743862792968749 0.26549999999999996 Q 7.836112792968749 0.22199999999999998 7.933612792968749 0.22199999999999998 Q 8.040112792968749 0.22199999999999998 8.121862792968749 0.27374999999999994 Q 8.20361279296875 0.3254999999999999 8.24861279296875 0.40874999999999995 Q 8.29361279296875 0.49199999999999994 8.29361279296875 0.5834999999999999 Q 8.29361279296875 0.6839999999999999 8.24111279296875 0.7702499999999999 Q 8.18861279296875 0.8564999999999999 8.09861279296875 0.90825 Q 8.00861279296875 0.96 7.900612792968749 0.96 Q 7.7941127929687495 0.96 7.71011279296875 0.90975 M 8.07086279296875 0.843 Q 8.122612792968749 0.7605 8.122612792968749 0.615 Q 8.122612792968749 0.516 8.09261279296875 0.43499999999999994 Q 8.06261279296875 0.354 8.00786279296875 0.30674999999999997 Q 7.953112792968749 0.25949999999999995 7.881112792968749 0.25949999999999995 Q 7.7941127929687495 0.25949999999999995 7.7491127929687496 0.3314999999999999 Q 7.70411279296875 0.40349999999999997 7.70411279296875 0.5445 Q 7.70411279296875 0.651 7.734862792968749 0.7387499999999999 Q 7.765612792968749 0.8264999999999999 7.8181127929687495 0.8759999999999999 Q 7.87061279296875 0.9255 7.9351127929687495 0.9255 Q 8.01911279296875 0.9255 8.07086279296875 0.843 M 9.1906376953125 0.9329999999999999 Q 9.1906376953125 0.942 9.1861376953125 0.942 L 8.9401376953125 0.942 Q 8.9176376953125 0.942 8.8598876953125 0.852 Q 8.8021376953125 0.762 8.7226376953125 0.6044999999999999 Q 8.691137695312499 0.609 8.6596376953125 0.609 L 8.6341376953125 0.609 L 8.6341376953125 0.8205 Q 8.6341376953125 0.867 8.6408876953125 0.8879999999999999 Q 8.647637695312499 0.9089999999999999 8.6663876953125 0.9165 Q 8.6851376953125 0.9239999999999999 8.7271376953125 0.9239999999999999 Q 8.7301376953125 0.9239999999999999 8.7301376953125 0.9329999999999999 Q 8.7301376953125 0.942 8.7271376953125 0.942 Q 8.6821376953125 0.942 8.656637695312499 0.9405 L 8.554637695312499 0.939 L 8.457137695312499 0.9405 Q 8.4301376953125 0.942 8.3821376953125 0.942 Q 8.3791376953125 0.942 8.3791376953125 0.9329999999999999 Q 8.3791376953125 0.9239999999999999 8.3821376953125 0.9239999999999999 Q 8.4241376953125 0.9239999999999999 8.4436376953125 0.9165 Q 8.463137695312499 0.9089999999999999 8.470637695312499 0.88725 Q 8.4781376953125 0.8654999999999999 8.4781376953125 0.8205 L 8.4781376953125 0.36149999999999993 Q 8.4781376953125 0.3164999999999999 8.4713876953125 0.2955 Q 8.464637695312499 0.27449999999999997 8.4451376953125 0.26625 Q 8.4256376953125 0.2579999999999999 8.3851376953125 0.2579999999999999 Q 8.3806376953125 0.2579999999999999 8.3806376953125 0.2489999999999999 Q 8.3806376953125 0.23999999999999988 8.3851376953125 0.23999999999999988 L 8.458637695312499 0.24149999999999994 Q 8.5186376953125 0.24449999999999994 8.554637695312499 0.24449999999999994 Q 8.5831376953125 0.24449999999999994 8.607137695312499 0.24299999999999988 Q 8.6311376953125 0.24149999999999994 8.649137695312499 0.23999999999999988 Q 8.698637695312499 0.23549999999999993 8.742137695312499 0.23549999999999993 Q 8.8591376953125 0.23549999999999993 8.9206376953125 0.2729999999999999 Q 8.982137695312499 0.3104999999999999 8.982137695312499 0.3809999999999999 Q 8.982137695312499 0.4394999999999999 8.9446376953125 0.48899999999999993 Q 8.9071376953125 0.5385 8.841137695312499 0.57 Q 8.9221376953125 0.7064999999999999 8.980637695312499 0.7829999999999999 Q 9.0391376953125 0.8594999999999999 9.0871376953125 0.8917499999999999 Q 9.1351376953125 0.9239999999999999 9.1861376953125 0.9239999999999999 Q 9.1906376953125 0.9239999999999999 9.1906376953125 0.9329999999999999 M 8.6701376953125 0.5805 Q 8.7556376953125 0.5805 8.788637695312499 0.54075 Q 8.8216376953125 0.5009999999999999 8.8216376953125 0.4215 Q 8.8216376953125 0.26549999999999996 8.7076376953125 0.26549999999999996 Q 8.6761376953125 0.26549999999999996 8.6611376953125 0.2729999999999999 Q 8.646137695312499 0.28049999999999997 8.6401376953125 0.30074999999999996 Q 8.6341376953125 0.32099999999999995 8.6341376953125 0.36449999999999994 L 8.6341376953125 0.579 Q 8.644637695312499 0.5805 8.6701376953125 0.5805 M 9.48013330078125 0.9434999999999999 Q 9.462133300781248 0.942 9.43513330078125 0.9405 Q 9.40813330078125 0.939 9.373633300781249 0.939 L 9.276133300781249 0.9405 Q 9.24913330078125 0.942 9.20113330078125 0.942 Q 9.19813330078125 0.942 9.19813330078125 0.9329999999999999 Q 9.19813330078125 0.9239999999999999 9.20113330078125 0.9239999999999999 Q 9.24613330078125 0.9239999999999999 9.26638330078125 0.9165 Q 9.286633300781249 0.9089999999999999 9.29338330078125 0.88725 Q 9.30013330078125 0.8654999999999999 9.30013330078125 0.8205 L 9.30013330078125 0.36149999999999993 Q 9.30013330078125 0.3164999999999999 9.29338330078125 0.2955 Q 9.286633300781249 0.27449999999999997 9.26638330078125 0.26625 Q 9.24613330078125 0.2579999999999999 9.20413330078125 0.2579999999999999 Q 9.19963330078125 0.2579999999999999 9.19963330078125 0.2489999999999999 Q 9.19963330078125 0.23999999999999988 9.20413330078125 0.23999999999999988 L 9.276133300781249 0.24149999999999994 Q 9.336133300781249 0.24449999999999994 9.373633300781249 0.24449999999999994 Q 9.420133300781249 0.24449999999999994 9.466633300781249 0.23999999999999988 Q 9.52663330078125 0.237 9.556633300781249 0.237 Q 9.68263330078125 0.237 9.77413330078125 0.2819999999999999 Q 9.86563330078125 0.32699999999999996 9.91363330078125 0.4065 Q 9.96163330078125 0.48599999999999993 9.96163330078125 0.5865 Q 9.96163330078125 0.69 9.91213330078125 0.7725 Q 9.86263330078125 0.855 9.77413330078125 0.9015 Q 9.68563330078125 0.948 9.57313330078125 0.948 Q 9.53113330078125 0.948 9.48013330078125 0.9434999999999999 M 9.72763330078125 0.834 Q 9.789133300781248 0.7529999999999999 9.789133300781248 0.603 Q 9.789133300781248 0.45749999999999996 9.72763330078125 0.36224999999999996 Q 9.666133300781249 0.2669999999999999 9.54313330078125 0.2669999999999999 Q 9.49213330078125 0.2669999999999999 9.470383300781249 0.2879999999999999 Q 9.44863330078125 0.30899999999999994 9.44863330078125 0.36449999999999994 L 9.44863330078125 0.8039999999999999 Q 9.44863330078125 0.8654999999999999 9.470383300781249 0.89025 Q 9.49213330078125 0.9149999999999999 9.556633300781249 0.9149999999999999 Q 9.666133300781249 0.9149999999999999 9.72763330078125 0.834 M 10.209158203125 0.5385 Q 10.209158203125 0.705 10.282658203125 0.8039999999999999 Q 10.356158203125 0.9029999999999999 10.489658203125 0.9029999999999999 Q 10.527158203125 0.9029999999999999 10.566158203125 0.8925 Q 10.605158203124999 0.8819999999999999 10.635158203125 0.861 L 10.636658203125 0.861 Q 10.641158203124998 0.861 10.644908203124999 0.86625 Q 10.648658203124999 0.8714999999999999 10.645658203124999 0.8759999999999999 Q 10.540658203125 0.96 10.414658203124999 0.96 Q 10.297658203125 0.96 10.215908203125 0.90975 Q 10.134158203124999 0.8594999999999999 10.092158203124999 0.7785 Q 10.050158203125 0.6975 10.050158203125 0.603 Q 10.050158203125 0.49949999999999994 10.101158203125 0.4132499999999999 Q 10.152158203125 0.32699999999999996 10.239158203125 0.27674999999999994 Q 10.326158203124999 0.22649999999999992 10.428158203125 0.22649999999999992 Q 10.539158203125 0.22649999999999992 10.597658203124999 0.2849999999999999 Q 10.656158203124999 0.3434999999999999 10.656158203124999 0.43799999999999994 Q 10.656158203124999 0.45749999999999996 10.652408203124999 0.4649999999999999 Q 10.648658203124999 0.4724999999999999 10.638158203124998 0.4724999999999999 L 10.212158203125 0.4739999999999999 Q 10.209158203125 0.5129999999999999 10.209158203125 0.5385 M 10.272908203124999 0.3104999999999999 Q 10.231658203124999 0.35849999999999993 10.216658203124998 0.44399999999999995 L 10.495658203125 0.4394999999999999 Q 10.492658203125 0.26249999999999996 10.377158203125 0.26249999999999996 Q 10.314158203124999 0.26249999999999996 10.272908203124999 0.3104999999999999" fill="#343432" fill-rule="nonzero"></path></g><g></g></g><defs><clipPath id="SvgjsClipPath84460"><path d=" M 0.7157366786102539 -7.689772175579794 h 9.253189240435741 v 7.439772175579794 h -9.253189240435741 Z"></path></clipPath><clipPath id="SvgjsClipPath84458dceb8ca2-7025-4e08-97f8-8cfa0a5766dd"><path d=" M 0.7157366786102539 -7.689772175579793 L 9.968925919045995 -7.689772175579793 L 9.968925919045995 -0.25 L 0.7157366786102539 -0.25 Z"></path></clipPath></defs></svg>